# xmcd
#
# Track frame offsets: 
#        150
#        15025
#        44735
#        68935
#        85370
#        106517
#        125275
#        148222
#        168020
#        195410
#
# Disc length: 2831 seconds
#
# Revision: 3
# Processed by: cddbd v1.5.2PL0 Copyright (c) Steve Scherf et al.
# Submitted via: ExactAudioCopy v0.95b3
#
DISCID=790b0d0a
DTITLE=Denise Lasalle - Still Trapped
DYEAR=1990
DGENRE=R&B
TTITLE0=Wet Match
TTITLE1=Trapped...1990
TTITLE2=Paper Thin
TTITLE3=Chain Letter
TTITLE4=A Real Sad Story
TTITLE5=Drop That Zero
TTITLE6=I'm Loved
TTITLE7=Kiss It
TTITLE8=Love And Happiness
TTITLE9=Wild Thang (All Nite Long)
EXTD=
EXTT0=
EXTT1=
EXTT2=
EXTT3=
EXTT4=
EXTT5=
EXTT6=
EXTT7=
EXTT8=Lasalle, Denise
EXTT9=
PLAYORDER=
